<svg width="1638" height="463" xmlns="http://www.w3.org/2000/svg" xmlns:xlink="http://www.w3.org/1999/xlink" xml:space="preserve" overflow="hidden"><g transform="translate(-729 -372)"><g><g><g><path d="M1023.77 542.497C1027.29 531.921 1028.51 520.716 1027.35 509.631 1026.19 498.545 1022.67 487.836 1017.04 478.219 1008.69 463.672 995.932 452.155 980.61 445.33 965.288 438.504 948.194 436.723 931.793 440.243 924.396 431.906 915.304 425.246 905.124 420.708 894.944 416.17 883.913 413.858 872.768 413.928 856 413.888 839.653 419.173 826.082 429.023 812.512 438.872 802.42 452.776 797.262 468.731 786.338 470.967 776.019 475.511 766.994 482.058 757.969 488.605 750.446 497.004 744.93 506.694 736.512 521.201 732.918 538.005 734.668 554.686 736.418 571.367 743.42 587.06 754.666 599.503 751.145 610.079 749.923 621.284 751.083 632.369 752.243 643.455 755.758 654.164 761.391 663.781 769.744 678.327 782.502 689.843 797.823 696.669 813.145 703.494 830.239 705.276 846.639 701.757 854.037 710.094 863.13 716.754 873.309 721.292 883.489 725.83 894.52 728.141 905.665 728.071 922.441 728.115 938.797 722.828 952.372 712.972 965.948 703.116 976.041 689.202 981.196 673.238 992.119 671.002 1002.44 666.459 1011.46 659.911 1020.49 653.364 1028.01 644.964 1033.53 635.274 1041.94 620.769 1045.52 603.969 1043.77 587.295 1042.01 570.621 1035.01 554.935 1023.77 542.497ZM905.69 707.535C891.919 707.555 878.58 702.732 868.005 693.91 868.482 693.65 869.318 693.192 869.863 692.858L932.413 656.727C933.983 655.834 935.286 654.539 936.19 652.975 937.094 651.41 937.564 649.634 937.553 647.828L937.553 559.645 963.992 574.911C964.13 574.98 964.249 575.082 964.339 575.209 964.429 575.335 964.486 575.482 964.505 575.635L964.505 648.664C964.486 664.262 958.284 679.216 947.26 690.251 936.236 701.286 921.287 707.501 905.69 707.535ZM779.203 653.514C772.305 641.595 769.819 627.63 772.18 614.063 772.644 614.342 773.456 614.837 774.038 615.172L836.587 651.302C838.146 652.213 839.92 652.694 841.725 652.694 843.53 652.694 845.303 652.213 846.862 651.302L923.229 607.208 923.229 637.74C923.237 637.895 923.208 638.051 923.142 638.193 923.076 638.334 922.976 638.457 922.851 638.551L859.62 675.058C846.095 682.849 830.032 684.954 814.956 680.915 799.88 676.876 787.022 667.021 779.203 653.514ZM762.748 516.962C769.616 505.028 780.463 495.891 793.391 491.15 793.391 491.688 793.36 492.643 793.36 493.305L793.36 565.565C793.349 567.37 793.819 569.145 794.721 570.709 795.624 572.271 796.926 573.566 798.494 574.459L874.86 618.548 848.423 633.813C848.292 633.899 848.142 633.951 847.987 633.965 847.831 633.979 847.674 633.955 847.531 633.894L784.293 597.354C770.792 589.535 760.942 576.682 756.903 561.612 752.864 546.542 754.966 530.485 762.748 516.962ZM979.964 567.51 903.596 523.415 930.035 508.156C930.165 508.07 930.315 508.018 930.471 508.003 930.626 507.989 930.782 508.014 930.926 508.076L994.164 544.583C1003.85 550.18 1011.74 558.42 1016.92 568.34 1022.09 578.26 1024.33 589.448 1023.38 600.596 1022.43 611.743 1018.31 622.388 1011.53 631.284 1004.74 640.18 995.565 646.958 985.066 650.825 985.066 650.28 985.066 649.327 985.066 648.664L985.066 576.403C985.081 574.602 984.616 572.828 983.719 571.265 982.822 569.703 981.526 568.407 979.964 567.51ZM1006.28 527.905C1005.81 527.62 1005 527.131 1004.42 526.797L941.869 490.667C940.31 489.757 938.538 489.277 936.732 489.277 934.928 489.277 933.154 489.757 931.595 490.667L855.229 534.762 855.229 504.23C855.22 504.073 855.25 503.918 855.316 503.777 855.382 503.635 855.482 503.512 855.607 503.419L918.838 466.941C928.525 461.355 939.602 458.644 950.774 459.123 961.946 459.603 972.749 463.254 981.922 469.649 991.095 476.045 998.256 484.92 1002.57 495.237 1006.88 505.553 1008.17 516.884 1006.28 527.905ZM840.855 582.324 814.41 567.058C814.272 566.989 814.152 566.887 814.062 566.761 813.973 566.634 813.915 566.487 813.897 566.333L813.897 493.305C813.904 482.12 817.097 471.168 823.102 461.732 829.107 452.295 837.677 444.765 847.806 440.022 857.936 435.279 869.207 433.519 880.3 434.949 891.394 436.379 901.85 440.939 910.446 448.096 909.969 448.356 909.139 448.814 908.588 449.148L846.038 485.279C844.468 486.171 843.166 487.465 842.262 489.028 841.358 490.591 840.888 492.367 840.898 494.172L840.855 582.324ZM855.216 551.359 889.229 531.714 923.241 551.346 923.241 590.622 889.229 610.255 855.216 590.622 855.216 551.359Z" fill="#FFFFFF"/></g></g></g><text fill="#FFFFFF" font-family="Microsoft YaHei,Microsoft YaHei_MSFontService,sans-serif" font-weight="700" font-size="220" transform="matrix(1 0 0 1 1155.75 650)">ChatMate</text></g></svg>